<svg width="397" height="397" viewBox="0 0 397 397" fill="none" xmlns="http://www.w3.org/2000/svg">
<path d="M241.081 65.8658C248.185 51.4213 238.95 41.0025 229.123 52.487C221.901 61.0116 211.719 85.283 213.495 89.9004C217.639 100.438 229.005 90.4924 241.081 65.8658Z" fill="black"/>
<path d="M170.398 94.9896C177.857 97.3575 180.462 92.9767 179.633 79.4795C177.858 52.8401 169.688 41.8292 155.717 47.3939C149.087 49.9986 162.11 92.3849 170.398 94.9896Z" fill="black"/>
<path d="M95.6921 101.861C112.504 114.412 124.225 119.976 130.145 117.845C137.486 115.24 136.302 112.754 122.923 102.217C105.874 88.601 96.5204 84.5755 87.5222 86.9434C81.1288 88.601 83.142 92.3897 95.6921 101.861Z" fill="black"/>
<path d="M240.962 106.357C236.937 110.738 236.937 110.856 240.015 113.106C248.777 119.499 258.13 114.408 295.188 82.7959C305.134 74.2713 288.676 67.5227 277.073 75.4553C271.035 79.5992 245.698 101.266 240.962 106.357Z" fill="black"/>
<path d="M381.856 319.707C377.712 316.274 374.989 309.88 373.805 300.764C372.976 294.489 359.716 190.773 353.677 163.423C348.705 140.691 334.734 129.917 323.605 129.325C316.619 128.97 312.593 133.587 309.752 131.811C302.056 126.957 299.925 124.707 292.347 125.418C288.795 125.654 280.863 127.785 278.14 130.153C276.364 131.574 274.115 131.574 269.142 130.272C244.752 123.76 233.978 146.966 244.988 182.367C251.264 202.612 260.262 193.733 257.657 169.935C254.224 138.441 254.934 135.126 264.761 138.678C270.089 140.572 270.325 141.046 269.852 147.558C269.141 156.674 275.535 198.35 277.903 199.889C284.415 204.152 289.388 196.574 287.256 185.326C281.455 153.833 285.362 134.297 296.965 137.257C300.517 138.204 303.122 141.401 303.122 145.071C303.714 180.709 304.069 204.507 314.961 204.507C321.828 204.507 321.828 204.744 320.289 173.842C318.632 141.046 322.539 139.27 328.34 141.046C336.747 143.651 337.575 163.305 338.404 168.632C338.404 168.751 357.111 291.647 357.111 291.884C359.36 319.826 376.765 344.334 388.959 336.52C391.446 334.862 386.828 323.851 381.856 319.707Z" fill="black"/>
<path d="M89.416 170.527C89.416 151.465 89.6527 149.926 93.4414 145.664C100.19 137.731 102.321 144.954 103.624 181.42C104.571 208.059 104.689 208.414 110.373 210.072C117.713 212.322 118.424 208.888 117.595 178.815C116.766 151.702 116.884 150.755 120.436 147.203C127.777 139.744 129.316 142.704 132.394 168.396C134.17 184.025 133.933 192.786 131.447 206.283C130.855 209.717 131.447 210.782 134.288 211.611C141.984 213.624 143.287 211.019 145.536 188.524C149.443 149.571 144.116 137.85 122.094 137.613C115.582 137.495 108.123 136.666 105.518 135.482C102.913 134.416 96.9934 133.587 92.3759 133.706C87.7584 133.824 80.1809 133.469 75.6818 132.877C70.2356 132.167 65.7369 132.64 62.5402 134.061C48.9245 140.336 46.5566 147.677 30.573 233.988C27.8499 248.906 24.7714 267.495 23.9427 275.19C22.2851 289.516 17.3122 306.21 10.682 319.945C6.06447 329.416 7.13028 332.85 14.4709 332.85C27.613 332.85 39.9263 311.538 42.8862 283.478C44.4254 268.56 47.1486 262.404 51.8845 228.305C60.8827 162.595 62.5397 155.017 69.17 147.322C78.2866 136.784 77.4578 140.218 78.6417 201.547C78.6417 204.152 81.0099 206.165 83.6147 205.928C88.3505 205.573 89.416 201.192 89.416 170.527Z" fill="black"/>
<path d="M310.225 333.797C302.766 320.063 302.174 319.589 288.913 318.168C272.811 316.392 260.379 310.117 255.051 301.119C243.33 281.11 226.873 227.95 228.768 216.228C231.372 199.771 236.818 200.955 245.698 219.662C252.684 234.343 257.301 239.553 273.758 251.866C281.099 257.312 285.598 262.166 288.558 267.968C292.228 275.072 293.531 276.256 297.793 276.256C312.356 276.256 294.951 244.644 277.192 238.961C269.614 236.593 267.247 234.58 267.247 230.673C267.247 211.137 238.713 189.944 223.558 198.232C210.535 205.454 209.469 216.347 218.467 249.143C235.753 312.012 245.462 324.798 277.902 327.64C290.571 328.824 293.649 330.955 300.042 342.913C308.804 359.37 318.868 348.123 316.855 345.518C316.145 344.452 313.184 339.243 310.225 333.797Z" fill="black"/>
<path d="M152.878 205.929C144.235 209.954 134.882 219.9 130.856 229.371C127.896 236.357 127.068 237.067 120.437 238.133C105.993 240.382 93.443 251.156 91.5486 262.641C89.8911 272.823 100.31 278.032 104.098 268.797C109.071 256.839 118.898 247.604 129.672 244.881C136.302 243.224 149.563 229.963 160.811 214.098C167.915 204.034 172.65 217.65 167.678 233.515C152.049 282.532 131.803 309.526 108.479 312.131C98.6522 313.315 96.5209 315.327 88.1147 332.021C82.55 342.914 82.4318 343.506 85.3918 345.637C92.4956 350.847 99.2443 345.874 103.862 332.14C107.059 322.668 107.414 322.194 114.636 320.418C141.867 313.433 155.365 297.331 174.9 248.907C189.818 211.967 180.228 193.26 152.878 205.929Z" fill="black"/>
</svg>
